<svg width="40" height="40" viewBox="0 0 40 40" fill="none" xmlns="http://www.w3.org/2000/svg">
<rect width="40" height="40" rx="20" fill="#404FDB"/>
<path d="M13.6862 21.4194C12.117 21.4194 10.7771 20.8618 9.66661 19.7458C8.55612 18.6307 8 17.2853 8 15.7097C8 14.134 8.55525 12.7895 9.66661 11.6735C10.7771 10.5584 12.117 10 13.6862 10C15.2553 10 16.5952 10.5575 17.7057 11.6735C18.8162 12.7895 19.3723 14.1349 19.3723 15.7097C19.3723 17.2845 18.817 18.6307 17.7057 19.7458C16.5952 20.8618 15.2553 21.4194 13.6862 21.4194Z" fill="white"/>
<path d="M26.3141 21.4194C24.7449 21.4194 23.405 20.8618 22.2945 19.7458C21.184 18.6307 20.6279 17.2853 20.6279 15.7097C20.6279 14.134 21.1832 12.7895 22.2945 11.6735C23.405 10.5584 24.7449 10 26.3141 10C27.8833 10 29.2231 10.5575 30.3336 11.6735C31.4441 12.7895 32.0002 14.1349 32.0002 15.7097C32.0002 17.2845 31.445 18.6307 30.3336 19.7458C29.2231 20.8618 27.8833 21.4194 26.3141 21.4194Z" fill="white"/>
</svg>
