<svg width="96" height="28" viewBox="0 0 96 28" fill="none" xmlns="http://www.w3.org/2000/svg">
<g clip-path="url(#clip0_20_633)">
<mask id="mask0_20_633" style="mask-type:luminance" maskUnits="userSpaceOnUse" x="0" y="0" width="96" height="28">
<path d="M96 0H0V28H96V0Z" fill="white"/>
</mask>
<g mask="url(#mask0_20_633)">
<path d="M9.89828 11.9254H7.91909V1.9874H3.96066V11.9254H1.98145V0H9.89918V11.9254H9.89828Z" fill="white"/>
<path d="M15.3423 0C16.2986 0 17.1154 0.339975 17.7916 1.01902C18.4679 1.69806 18.8065 2.51817 18.8065 3.47841V4.47211C18.8065 5.43236 18.4679 6.25246 17.7916 6.93151C17.1154 7.61055 16.2986 7.95053 15.3423 7.95053H12.8679V11.9254H10.8887V0H15.3423ZM16.8273 3.47841C16.8273 3.06429 16.6832 2.71257 16.3941 2.42232C16.1051 2.13207 15.7548 1.9874 15.3423 1.9874H12.8679V5.96222H15.3423C15.7548 5.96222 16.1051 5.81755 16.3941 5.5273C16.6832 5.23706 16.8273 4.88533 16.8273 4.47121V3.47841Z" fill="white"/>
<path d="M25.7354 11.9254C24.0966 11.9254 22.6973 11.3431 21.5375 10.1776C20.3777 9.013 19.7969 7.60789 19.7969 5.96227C19.7969 4.31664 20.3768 2.91244 21.5375 1.74694C22.6973 0.582347 24.0966 -0.000854492 25.7354 -0.000854492C27.3743 -0.000854492 28.7735 0.581443 29.9334 1.74694C31.0932 2.91244 31.674 4.31755 31.674 5.96227C31.674 7.60699 31.0941 9.013 29.9334 10.1776C28.7735 11.3431 27.3743 11.9254 25.7354 11.9254ZM25.7354 9.93795C26.8294 9.93795 27.7632 9.5501 28.5359 8.7743C29.3084 7.9985 29.6947 7.06176 29.6947 5.96227C29.6947 4.86278 29.3084 3.92694 28.5359 3.15115C27.7632 2.37535 26.8303 1.98746 25.7354 1.98746C24.6404 1.98746 23.7075 2.37535 22.935 3.15115C22.1624 3.92694 21.7761 4.86368 21.7761 5.96227C21.7761 7.06086 22.1624 7.9985 22.935 8.7743C23.7075 9.5501 24.6404 9.93795 25.7354 9.93795Z" fill="white"/>
<path d="M8.41211 24.0244H9.89697V27.9992H7.91775V26.0118H1.97921V27.9992H0V24.0244H0.503358C0.91037 24.0244 1.25975 23.8779 1.55059 23.5859C1.83605 23.2992 1.97921 22.9484 1.97921 22.5343V14.0874H8.41211V24.0244ZM6.4329 24.0244V16.0739H3.95842V22.5334C3.95842 23.0741 3.85128 23.5715 3.63696 24.0244H6.4329Z" fill="white"/>
<path d="M16.423 19.2214C16.929 19.3813 17.3855 19.6662 17.7916 20.074C18.4679 20.753 18.8065 21.5731 18.8065 22.5334C18.8065 23.4936 18.4679 24.3137 17.7916 24.9928C17.1154 25.6718 16.2986 26.0118 15.3423 26.0118H10.8887V14.0864H13.3632C14.3195 14.0864 15.1362 14.4264 15.8124 15.1054C16.4886 15.7845 16.8273 16.6046 16.8273 17.5648C16.8273 18.1724 16.6921 18.724 16.423 19.2214ZM12.8679 19.0559H13.3632C13.7756 19.0559 14.1259 18.9112 14.415 18.6209C14.7039 18.3307 14.848 17.979 14.848 17.5648C14.848 17.1507 14.7039 16.799 14.415 16.5088C14.1259 16.2185 13.7756 16.0738 13.3632 16.0738H12.8679V19.055V19.0559ZM15.3423 24.0243C15.7548 24.0243 16.1051 23.8797 16.3941 23.5894C16.6832 23.2992 16.8273 22.9474 16.8273 22.5334C16.8273 22.1193 16.6832 21.7675 16.3941 21.4773C16.1051 21.187 15.7548 21.0423 15.3423 21.0423H12.8679V24.0234L15.3423 24.0243Z" fill="white"/>
<path d="M31.6731 14.0874V26.0127H29.6938V16.6046L22.3127 26.0127H19.7969V14.0874H21.7761V23.4955L29.1571 14.0874H31.6731Z" fill="white"/>
<path d="M44.5354 25.0191V26.0127H42.5562V25.0191C42.5562 23.9205 42.1718 22.9819 41.4019 22.2033C40.8688 21.6735 40.2636 21.3254 39.5874 21.1599V26.0127H37.6082V21.1599C36.932 21.3254 36.3295 21.6735 35.8019 22.2033C35.0266 22.9819 34.6394 23.9205 34.6394 25.0191V26.0127H32.6602V25.0191C32.6602 23.3734 33.2401 21.9692 34.4007 20.8037C34.9779 20.2241 35.6128 19.7883 36.3062 19.4954L32.6611 16.6137V14.0874L37.6091 17.9962V14.0874H39.5883V17.9962L44.5364 14.0874V16.6137L40.8913 19.4954C41.5837 19.7883 42.2195 20.2241 42.7967 20.8037C43.9565 21.9692 44.5373 23.3734 44.5373 25.0191H44.5354Z" fill="white"/>
<path d="M57.3996 14.0873V16.0747H47.5027V19.0559H55.4204V21.0433H47.5027V24.0243H57.3996V26.0118H45.5234V14.0864L57.3996 14.0873Z" fill="white"/>
<path d="M60.3727 21.0433V26.0118H58.3936V14.0864H60.3727V19.055H68.2905V14.0864H70.2697V26.0118H68.2905V21.0433H60.3727Z" fill="white"/>
<path d="M83.133 14.0874V26.0127H81.1538V16.6046L73.7727 26.0127H71.2568V14.0874H73.2361V23.4955L80.6171 14.0874H83.133Z" fill="white"/>
<path d="M95.9962 14.0873V16.0747H86.0993V19.0559H94.0174V21.0433H86.0993V24.0243H95.9962V26.0118H84.1201V14.0864L95.9962 14.0873Z" fill="white"/>
<path d="M38.8966 11.9254C37.2577 11.9254 35.8584 11.3431 34.6986 10.1776C33.5388 9.013 32.958 7.60789 32.958 5.96227C32.958 4.31664 33.5379 2.91244 34.6986 1.74694C35.8584 0.582347 37.2577 -0.000854492 38.8966 -0.000854492C40.5354 -0.000854492 41.9347 0.581443 43.0945 1.74694C44.2543 2.91244 44.8351 4.31755 44.8351 5.96227C44.8351 7.60699 44.2552 9.013 43.0945 10.1776C41.9347 11.3431 40.5354 11.9254 38.8966 11.9254Z" fill="white"/>
<path d="M52.0851 11.9254C50.4462 11.9254 49.0469 11.3431 47.8871 10.1776C46.7273 9.013 46.1465 7.60789 46.1465 5.96227C46.1465 4.31664 46.7264 2.91244 47.8871 1.74694C49.0469 0.582347 50.4462 -0.000854492 52.0851 -0.000854492C53.7239 -0.000854492 55.1232 0.581443 56.283 1.74694C57.4428 2.91244 58.0236 4.31755 58.0236 5.96227C58.0236 7.60699 57.4437 9.013 56.283 10.1776C55.1232 11.3431 53.7239 11.9254 52.0851 11.9254Z" fill="white"/>
</g>
</g>
<defs>
<clipPath id="clip0_20_633">
<rect width="96" height="28" fill="white"/>
</clipPath>
</defs>
</svg>
